<svg width="24" height="24" viewBox="0 0 24 24" fill="none" xmlns="http://www.w3.org/2000/svg">
<path fill-rule="evenodd" clip-rule="evenodd" d="M8.99978 8C8.99978 6.34315 10.3429 5 11.9998 5C13.6566 5 14.9998 6.34315 14.9998 8C14.9998 9.65685 13.6566 11 11.9998 11C10.3429 11 8.99978 9.65685 8.99978 8ZM15.3488 11.7127C16.3626 10.7976 16.9998 9.47323 16.9998 8C16.9998 5.23858 14.7612 3 11.9998 3C9.23835 3 6.99978 5.23858 6.99978 8C6.99978 9.47323 7.63693 10.7976 8.65071 11.7127C5.97202 12.898 3.96046 15.4283 3.26732 18.2829C2.81391 20.1503 4.42785 21.5 5.99978 21.5H17.9998C19.5717 21.5 21.1856 20.1503 20.7322 18.2829C20.0391 15.4283 18.0275 12.898 15.3488 11.7127ZM11.9998 13C8.79415 13 5.99225 15.5367 5.21085 18.7548C5.16675 18.9365 5.21303 19.0942 5.34092 19.2322C5.48043 19.3827 5.71706 19.5 5.99978 19.5H17.9998C18.2825 19.5 18.5191 19.3827 18.6586 19.2322C18.7865 19.0942 18.8328 18.9365 18.7887 18.7548C18.0073 15.5367 15.2054 13 11.9998 13Z" fill="white"/>
</svg>
