<svg width="24" height="24" viewBox="0 0 24 24" fill="none" xmlns="http://www.w3.org/2000/svg">
<path fill-rule="evenodd" clip-rule="evenodd" d="M8 6C8 5.44772 8.44772 5 9 5H15C15.5523 5 16 5.44772 16 6V7H8V6ZM6 7V6C6 4.34315 7.34315 3 9 3H15C16.6569 3 18 4.34315 18 6V7H21C21.5523 7 22 7.44772 22 8V20C22 20.5523 21.5523 21 21 21H3C2.44772 21 2 20.5523 2 20V8C2 7.44772 2.44772 7 3 7H6ZM4 19V13.1968C6.22852 13.5845 8.16082 13.8314 10 13.9384V14C10 14.5523 10.4477 15 11 15H13C13.5523 15 14 14.5523 14 14V13.9477C15.866 13.8462 17.7921 13.5976 20 13.2031V19H4ZM20 11.1706C13.9908 12.2724 10.2638 12.282 4 11.1661V9H20V11.1706Z" fill="#85A190"/>
</svg>
