<svg width="24" height="24" viewBox="0 0 24 24" fill="none" xmlns="http://www.w3.org/2000/svg">
<path d="M21 18C21 18.1887 20.9085 18.4697 20.527 18.8304C20.1435 19.1932 19.5348 19.5659 18.6997 19.9C17.035 20.5658 14.6668 21 12 21C9.33323 21 6.96497 20.5658 5.30032 19.9C4.46523 19.5659 3.85653 19.1932 3.47296 18.8304C3.0915 18.4697 3 18.1887 3 18C3 17.8113 3.0915 17.5303 3.47296 17.1696C3.85653 16.8068 4.46523 16.4341 5.30032 16.1C6.96497 15.4342 9.33323 15 12 15C14.6668 15 17.035 15.4342 18.6997 16.1C19.5348 16.4341 20.1435 16.8068 20.527 17.1696C20.9085 17.5303 21 17.8113 21 18Z" stroke="#85A290" stroke-width="2"/>
<path d="M17 8.86207C17 9.43244 16.7143 10.3589 16.1576 11.5426C15.6196 12.6864 14.8934 13.9388 14.154 15.1119C13.4168 16.2815 12.6779 17.3542 12.1225 18.1356C12.0806 18.1945 12.0397 18.2518 12 18.3073C11.9603 18.2518 11.9194 18.1945 11.8775 18.1356C11.3221 17.3542 10.5832 16.2815 9.84597 15.1119C9.10659 13.9388 8.38038 12.6864 7.8424 11.5426C7.28569 10.3589 7 9.43244 7 8.86207C7 6.19862 9.21652 4 12 4C14.7835 4 17 6.19862 17 8.86207Z" fill="#1B7049" stroke="#85A290" stroke-width="2"/>
<circle cx="12" cy="9" r="2" fill="#85A290"/>
</svg>
