<svg width="24" height="24" viewBox="0 0 24 24" fill="none" xmlns="http://www.w3.org/2000/svg">
<path fill-rule="evenodd" clip-rule="evenodd" d="M4.84946 5.18382C4.84946 4.53002 5.37948 4 6.03328 4C6.68709 4 7.21711 4.53002 7.21711 5.18382C7.21711 5.83763 6.68709 6.36765 6.03328 6.36765C5.37948 6.36765 4.84946 5.83763 4.84946 5.18382ZM6.03328 2C4.27491 2 2.84946 3.42545 2.84946 5.18382C2.84946 5.88277 3.07469 6.52912 3.45652 7.05425C2.50679 7.59399 1.73824 8.41081 1.25291 9.35473C0.794586 10.2461 1.00039 11.16 1.54013 11.7917C2.05039 12.3888 2.84382 12.7353 3.66576 12.7353H8.40105C9.22299 12.7353 10.0164 12.3888 10.5267 11.7917C11.0664 11.16 11.2722 10.2461 10.8139 9.35473C10.3285 8.41076 9.55993 7.59389 8.61011 7.05415C8.99191 6.52904 9.21711 5.88273 9.21711 5.18382C9.21711 3.42545 7.79166 2 6.03328 2ZM3.03156 10.2693C3.60373 9.15648 4.75382 8.36765 6.0334 8.36765C7.31299 8.36765 8.46307 9.15648 9.03524 10.2693C9.07127 10.3393 9.06678 10.3731 9.06531 10.3833C9.06291 10.3998 9.05243 10.4383 9.00619 10.4924C8.90456 10.6113 8.68368 10.7353 8.40105 10.7353H3.66576C3.38313 10.7353 3.16225 10.6113 3.06062 10.4924C3.01438 10.4383 3.00389 10.3998 3.0015 10.3833C3.00002 10.3731 2.99553 10.3393 3.03156 10.2693Z" fill="white"/>
<path fill-rule="evenodd" clip-rule="evenodd" d="M16.8495 5.18382C16.8495 4.53002 17.3795 4 18.0333 4C18.6871 4 19.2171 4.53002 19.2171 5.18382C19.2171 5.83763 18.6871 6.36765 18.0333 6.36765C17.3795 6.36765 16.8495 5.83763 16.8495 5.18382ZM18.0333 2C16.2749 2 14.8495 3.42545 14.8495 5.18382C14.8495 5.88277 15.0747 6.52912 15.4565 7.05425C14.5068 7.59399 13.7382 8.41081 13.2529 9.35473C12.7946 10.2461 13.0004 11.16 13.5401 11.7917C14.0504 12.3888 14.8438 12.7353 15.6658 12.7353H20.401C21.223 12.7353 22.0164 12.3888 22.5267 11.7917C23.0664 11.16 23.2722 10.2461 22.8139 9.35473C22.3285 8.41076 21.5599 7.59389 20.6101 7.05415C20.9919 6.52904 21.2171 5.88273 21.2171 5.18382C21.2171 3.42545 19.7917 2 18.0333 2ZM15.0316 10.2693C15.6037 9.15648 16.7538 8.36765 18.0334 8.36765C19.313 8.36765 20.4631 9.15648 21.0352 10.2693C21.0713 10.3393 21.0668 10.3731 21.0653 10.3833C21.0629 10.3998 21.0524 10.4383 21.0062 10.4924C20.9046 10.6113 20.6837 10.7353 20.401 10.7353H15.6658C15.3831 10.7353 15.1622 10.6113 15.0606 10.4924C15.0144 10.4383 15.0039 10.3998 15.0015 10.3833C15 10.3731 14.9955 10.3393 15.0316 10.2693Z" fill="white"/>
<path fill-rule="evenodd" clip-rule="evenodd" d="M10.8495 15.1838C10.8495 14.53 11.3795 14 12.0333 14C12.6871 14 13.2171 14.53 13.2171 15.1838C13.2171 15.8376 12.6871 16.3676 12.0333 16.3676C11.3795 16.3676 10.8495 15.8376 10.8495 15.1838ZM12.0333 12C10.2749 12 8.84946 13.4254 8.84946 15.1838C8.84946 15.8828 9.07469 16.5291 9.45652 17.0542C8.50679 17.594 7.73824 18.4108 7.25291 19.3547C6.79459 20.2461 7.00039 21.16 7.54013 21.7917C8.05039 22.3888 8.84382 22.7353 9.66576 22.7353H14.401C15.223 22.7353 16.0164 22.3888 16.5267 21.7917C17.0664 21.16 17.2722 20.2461 16.8139 19.3547C16.3285 18.4108 15.5599 17.5939 14.6101 17.0542C14.9919 16.529 15.2171 15.8827 15.2171 15.1838C15.2171 13.4254 13.7917 12 12.0333 12ZM9.03156 20.2693C9.60373 19.1565 10.7538 18.3677 12.0334 18.3677C13.313 18.3677 14.4631 19.1565 15.0352 20.2693C15.0713 20.3393 15.0668 20.3731 15.0653 20.3833C15.0629 20.3998 15.0524 20.4383 15.0062 20.4924C14.9046 20.6113 14.6837 20.7353 14.401 20.7353H9.66576C9.38313 20.7353 9.16225 20.6113 9.06062 20.4924C9.01438 20.4383 9.00389 20.3998 9.0015 20.3833C9.00002 20.3731 8.99553 20.3393 9.03156 20.2693Z" fill="white"/>
</svg>
