<svg width="66" height="66" viewBox="0 0 66 66" fill="none" xmlns="http://www.w3.org/2000/svg">
<path d="M28.5054 5.14471C28.6721 5.4877 29.6056 6.79103 30.0057 7.20261M38.0072 5.14471C37.8405 5.4877 36.907 6.79103 36.5069 7.20261" stroke="#9C9C9C"/>
<g filter="url(#filter0_i)">
<path d="M26.0049 10.9534C26.0049 9.77683 26.0049 9.18853 26.1627 8.72142C26.4622 7.83489 27.1582 7.13887 28.0447 6.83938C28.5118 6.68158 29.091 6.68158 30.2493 6.68158H35.7632C36.9215 6.68158 37.5006 6.68158 37.9677 6.83938C38.8543 7.13887 39.5503 7.83489 39.8498 8.72142C40.0076 9.18853 40.0076 9.77682 40.0076 10.9534C40.0076 12.8461 40.0076 13.7925 39.7625 14.5461C39.2679 16.0675 38.075 17.2603 36.5537 17.7549C35.8 18 34.8688 18 33.0062 18C31.1437 18 30.2124 18 29.4588 17.7549C27.9374 17.2603 26.7446 16.0675 26.2499 14.5461C26.0049 13.7925 26.0049 12.8461 26.0049 10.9534Z" fill="#D8D8D8"/>
</g>
<path d="M25.0049 3.98889C25.0049 4.90776 25.7498 5.65265 26.6686 5.65265H39.3465C40.2641 5.65265 41.008 4.90877 41.008 3.99115C41.008 2.01008 39.5142 0.33394 37.5388 0.185066C34.2636 -0.0617499 31.6386 -0.0600305 28.4714 0.180303C26.4963 0.330178 25.0049 2.00809 25.0049 3.98889Z" fill="#9C9C9C"/>
<path d="M5.14551 37.5C5.48856 37.3333 6.79214 36.4 7.2038 36M5.14551 28C5.48856 28.1667 6.79214 29.1 7.2038 29.5" stroke="#9C9C9C"/>
<g filter="url(#filter1_i)">
<path d="M10.9568 40C9.77875 40 9.18973 40 8.72234 39.842C7.8363 39.5425 7.14065 38.8468 6.84111 37.9608C6.68311 37.4934 6.68311 36.9138 6.68311 35.7548L6.68311 30.2452C6.68311 29.0862 6.68311 28.5066 6.84111 28.0392C7.14065 27.1532 7.8363 26.4575 8.72234 26.158C9.18973 26 9.77875 26 10.9568 26C12.8493 26 13.7956 26 14.5488 26.2447C16.071 26.7393 17.2644 27.9327 17.759 29.4549C18.0037 30.2081 18.0037 31.1387 18.0037 33C18.0037 34.8613 18.0037 35.7919 17.759 36.5451C17.2644 38.0673 16.071 39.2607 14.5488 39.7553C13.7956 40 12.8493 40 10.9568 40Z" fill="#D8D8D8"/>
</g>
<path d="M3.98968 41C4.90876 41 5.65381 40.2549 5.65381 39.3359L5.65381 26.6619C5.65381 25.744 4.90977 25 3.99195 25C2.0105 25 0.334005 26.494 0.185078 28.4698C-0.061656 31.7433 -0.0599384 34.3673 0.180313 37.5329C0.330241 39.5084 2.00851 41 3.98968 41Z" fill="#9C9C9C"/>
<path d="M28.5054 60.8553C28.6721 60.5123 29.6056 59.209 30.0057 58.7974M38.0072 60.8553C37.8405 60.5123 36.907 59.209 36.5069 58.7974" stroke="#9C9C9C"/>
<g filter="url(#filter2_i)">
<path d="M26.0049 55.0466C26.0049 56.2232 26.0049 56.8115 26.1627 57.2786C26.4622 58.1651 27.1582 58.8611 28.0447 59.1606C28.5118 59.3184 29.091 59.3184 30.2493 59.3184H35.7632C36.9215 59.3184 37.5006 59.3184 37.9677 59.1606C38.8543 58.8611 39.5503 58.1651 39.8498 57.2786C40.0076 56.8115 40.0076 56.2232 40.0076 55.0466C40.0076 53.1539 40.0076 52.2075 39.7625 51.4539C39.2679 49.9325 38.075 48.7397 36.5537 48.2451C35.8 48 34.8688 48 33.0062 48C31.1437 48 30.2124 48 29.4588 48.2451C27.9374 48.7397 26.7446 49.9325 26.2499 51.4539C26.0049 52.2075 26.0049 53.1539 26.0049 55.0466Z" fill="#D8D8D8"/>
</g>
<path d="M25.0049 62.0111C25.0049 61.0922 25.7498 60.3474 26.6686 60.3474H39.3465C40.2641 60.3474 41.008 61.0912 41.008 62.0088C41.008 63.9899 39.5142 65.6661 37.5388 65.8149C34.2636 66.0617 31.6386 66.06 28.4714 65.8197C26.4963 65.6698 25.0049 63.9919 25.0049 62.0111Z" fill="#9C9C9C"/>
<path d="M60.8545 37.5C60.5114 37.3333 59.2079 36.4 58.7962 36M60.8545 28C60.5114 28.1667 59.2079 29.1 58.7962 29.5" stroke="#9C9C9C"/>
<g filter="url(#filter3_i)">
<path d="M55.0432 40C56.2213 40 56.8103 40 57.2777 39.842C58.1637 39.5425 58.8594 38.8468 59.1589 37.9608C59.3169 37.4934 59.3169 36.9138 59.3169 35.7548V30.2452C59.3169 29.0862 59.3169 28.5066 59.1589 28.0392C58.8594 27.1532 58.1637 26.4575 57.2777 26.158C56.8103 26 56.2213 26 55.0432 26C53.1507 26 52.2044 26 51.4512 26.2447C49.929 26.7393 48.7356 27.9327 48.241 29.4549C47.9963 30.2081 47.9963 31.1387 47.9963 33C47.9963 34.8613 47.9963 35.7919 48.241 36.5451C48.7356 38.0673 49.929 39.2607 51.4512 39.7553C52.2044 40 53.1507 40 55.0432 40Z" fill="#D8D8D8"/>
</g>
<path d="M62.0103 41C61.0912 41 60.3462 40.2549 60.3462 39.3359V26.6619C60.3462 25.744 61.0902 25 62.0081 25C63.9895 25 65.666 26.494 65.8149 28.4698C66.0617 31.7433 66.0599 34.3673 65.8197 37.5329C65.6698 39.5084 63.9915 41 62.0103 41Z" fill="#9C9C9C"/>
<rect x="12.5024" y="12.5" width="41.0081" height="41" rx="3.5" fill="#E2E0E0" stroke="#C6C6C6"/>
<defs>
<filter id="filter0_i" x="25.0049" y="6.68158" width="15.0027" height="12.3184" filterUnits="userSpaceOnUse" color-interpolation-filters="sRGB">
<feFlood flood-opacity="0" result="BackgroundImageFix"/>
<feBlend mode="normal" in="SourceGraphic" in2="BackgroundImageFix" result="shape"/>
<feColorMatrix in="SourceAlpha" type="matrix" values="0 0 0 0 0 0 0 0 0 0 0 0 0 0 0 0 0 0 127 0" result="hardAlpha"/>
<feOffset dx="-1" dy="1"/>
<feGaussianBlur stdDeviation="1"/>
<feComposite in2="hardAlpha" operator="arithmetic" k2="-1" k3="1"/>
<feColorMatrix type="matrix" values="0 0 0 0 0.12549 0 0 0 0 0.341176 0 0 0 0 0.172549 0 0 0 0.53 0"/>
<feBlend mode="normal" in2="shape" result="effect1_innerShadow"/>
</filter>
<filter id="filter1_i" x="5.68311" y="26" width="12.3206" height="15" filterUnits="userSpaceOnUse" color-interpolation-filters="sRGB">
<feFlood flood-opacity="0" result="BackgroundImageFix"/>
<feBlend mode="normal" in="SourceGraphic" in2="BackgroundImageFix" result="shape"/>
<feColorMatrix in="SourceAlpha" type="matrix" values="0 0 0 0 0 0 0 0 0 0 0 0 0 0 0 0 0 0 127 0" result="hardAlpha"/>
<feOffset dx="-1" dy="1"/>
<feGaussianBlur stdDeviation="1"/>
<feComposite in2="hardAlpha" operator="arithmetic" k2="-1" k3="1"/>
<feColorMatrix type="matrix" values="0 0 0 0 0.12549 0 0 0 0 0.341176 0 0 0 0 0.172549 0 0 0 0.53 0"/>
<feBlend mode="normal" in2="shape" result="effect1_innerShadow"/>
</filter>
<filter id="filter2_i" x="25.0049" y="48" width="15.0027" height="12.3184" filterUnits="userSpaceOnUse" color-interpolation-filters="sRGB">
<feFlood flood-opacity="0" result="BackgroundImageFix"/>
<feBlend mode="normal" in="SourceGraphic" in2="BackgroundImageFix" result="shape"/>
<feColorMatrix in="SourceAlpha" type="matrix" values="0 0 0 0 0 0 0 0 0 0 0 0 0 0 0 0 0 0 127 0" result="hardAlpha"/>
<feOffset dx="-1" dy="1"/>
<feGaussianBlur stdDeviation="1"/>
<feComposite in2="hardAlpha" operator="arithmetic" k2="-1" k3="1"/>
<feColorMatrix type="matrix" values="0 0 0 0 0.12549 0 0 0 0 0.341176 0 0 0 0 0.172549 0 0 0 0.53 0"/>
<feBlend mode="normal" in2="shape" result="effect1_innerShadow"/>
</filter>
<filter id="filter3_i" x="46.9961" y="26" width="12.3206" height="15" filterUnits="userSpaceOnUse" color-interpolation-filters="sRGB">
<feFlood flood-opacity="0" result="BackgroundImageFix"/>
<feBlend mode="normal" in="SourceGraphic" in2="BackgroundImageFix" result="shape"/>
<feColorMatrix in="SourceAlpha" type="matrix" values="0 0 0 0 0 0 0 0 0 0 0 0 0 0 0 0 0 0 127 0" result="hardAlpha"/>
<feOffset dx="-1" dy="1"/>
<feGaussianBlur stdDeviation="1"/>
<feComposite in2="hardAlpha" operator="arithmetic" k2="-1" k3="1"/>
<feColorMatrix type="matrix" values="0 0 0 0 0.12549 0 0 0 0 0.341176 0 0 0 0 0.172549 0 0 0 0.53 0"/>
<feBlend mode="normal" in2="shape" result="effect1_innerShadow"/>
</filter>
</defs>
</svg>
