<svg width="79" height="60" viewBox="0 0 79 60" fill="none" xmlns="http://www.w3.org/2000/svg">
<path d="M43.9863 59.5L43.9863 0.5H71.0001C75.1422 0.5 78.5001 3.85786 78.5001 8V52C78.5001 56.1421 75.1422 59.5 71.0001 59.5H43.9863Z" fill="url(#paint0_linear)" stroke="#EBEBEB"/>
<path d="M33.1147 59.5L33.1147 0.5H60.1285C64.2707 0.5 67.6285 3.85786 67.6285 8V52C67.6285 56.1421 64.2706 59.5 60.1285 59.5H33.1147Z" fill="url(#paint1_linear)" stroke="#EBEBEB"/>
<path d="M22.2432 59.5L22.2432 0.5H49.2569C53.3991 0.5 56.7569 3.85786 56.7569 8V52C56.7569 56.1421 53.3991 59.5 49.2569 59.5H22.2432Z" fill="url(#paint2_linear)" stroke="#EBEBEB"/>
<path d="M11.3716 59.5L11.3716 0.5H38.3854C42.5275 0.5 45.8853 3.85786 45.8853 8V52C45.8853 56.1421 42.5275 59.5 38.3853 59.5H11.3716Z" fill="url(#paint3_linear)" stroke="#EBEBEB"/>
<path d="M0.5 59.5L0.5 0.5H27.5138C31.6559 0.5 35.0138 3.85786 35.0138 8V52C35.0138 56.1421 31.6559 59.5 27.5138 59.5H0.5Z" fill="#FCFCFC" stroke="#EBEBEB"/>
<rect y="1" width="1" height="58" fill="#FCFCFC"/>
<defs>
<linearGradient id="paint0_linear" x1="68.4909" y1="30" x2="79.0001" y2="30" gradientUnits="userSpaceOnUse">
<stop stop-color="#F3F3F3"/>
<stop offset="0.411458" stop-color="#FCFCFC"/>
</linearGradient>
<linearGradient id="paint1_linear" x1="57.6193" y1="30" x2="68.1285" y2="30" gradientUnits="userSpaceOnUse">
<stop stop-color="#F3F3F3"/>
<stop offset="0.411458" stop-color="#FCFCFC"/>
</linearGradient>
<linearGradient id="paint2_linear" x1="46.7478" y1="30" x2="57.2569" y2="30" gradientUnits="userSpaceOnUse">
<stop stop-color="#F3F3F3"/>
<stop offset="0.411458" stop-color="#FCFCFC"/>
</linearGradient>
<linearGradient id="paint3_linear" x1="35.8762" y1="30" x2="46.3853" y2="30" gradientUnits="userSpaceOnUse">
<stop stop-color="#F3F3F3"/>
<stop offset="0.411458" stop-color="#FCFCFC"/>
</linearGradient>
</defs>
</svg>
